<svg width="512" height="512" viewBox="0 0 100 100" fill="none" xmlns="http://www.w3.org/2000/svg">
    <defs>
        <linearGradient id="fishGradient" x1="0%" y1="0%" x2="100%" y2="100%">
            <stop offset="0%" stop-color="#ff6b6b" />
            <stop offset="100%" stop-color="#ee5a24" />
        </linearGradient>
    </defs>
    <!-- Fish body -->
    <path
        d="M22 40C22.2 39 23 38 24 38C25 38 26 39 27 40L35 45C36 46 37 46 38 45C39 44 40 43 40 42C50 20 80 25 90 50C80 75 50 80 40 58C39 57 38 56 37 55L27 60C26 61 25 62 24 62C23 62 22.2 61 22 60L25 50C25.2 49 25.2 48 25 47L22 40Z"
        fill="url(#fishGradient)"
        stroke="rgba(255,255,255,0.3)"
        stroke-width="2"
        stroke-linecap="round"
        stroke-linejoin="round"
    />
    <!-- Fish eye -->
    <ellipse cx="75" cy="50" rx="4" ry="4" fill="white" stroke="rgba(0,0,0,0.8)" stroke-width="1.5" />
    <!-- Eye pupil -->
    <ellipse cx="75" cy="50" rx="1.2" ry="1.2" fill="black" />
    <!-- Eye highlight -->
    <ellipse cx="76" cy="49" rx="0.6" ry="0.6" fill="white" />
</svg>