<svg width="512" height="512" viewBox="0 0 512 512" fill="none" xmlns="http://www.w3.org/2000/svg">
  <rect width="512" height="512" rx="64" fill="#0891b2"/>
  <path d="M380 256c0-20-16-36-36-36h-40c-20 0-36-16-36-36s16-36 36-36h40c44 0 80 36 80 80s-36 80-80 80h-40c-20 0-36 16-36 36s16 36 36 36h40c20 0 36-16 36-36z" fill="#06b6d4"/>
  <circle cx="320" cy="220" r="8" fill="#1e293b"/>
  <path d="M268 256L180 200v112l88-56z" fill="#0ea5e9"/>
  <path d="M200 180c20 0 36 16 36 36v80c0 20-16 36-36 36s-36-16-36-36v-80c0-20 16-36 36-36z" fill="#0284c7"/>
</svg>